<svg width="3000" height="3000" viewBox="0 0 3000 3000" fill="none" xmlns="http://www.w3.org/2000/svg">
<ellipse cx="1593.5" cy="983.5" rx="411.5" ry="405.5" fill="#B8CB42"/>
<path d="M1578.5 1793L1468.08 1311.5H1688.92L1578.5 1793Z" fill="#B8CB42"/>
<path d="M2948.2 2885.3L2245.08 1479.05C2237.11 1463.16 2220.89 1453.12 2203.13 1453.12H1739.39L1745.3 1427.58C1933.45 1363.31 2062.5 1184.95 2062.5 984.375C2062.5 725.906 1852.22 515.625 1593.75 515.625C1335.28 515.625 1125 725.906 1125 984.375C1125 1184.95 1254.05 1363.31 1442.2 1427.58L1448.11 1453.12H796.875C779.109 1453.12 762.891 1463.16 754.922 1479.05L51.7969 2885.3C44.5313 2899.83 45.2813 2917.08 53.8594 2930.91C62.4375 2944.69 77.4844 2953.12 93.75 2953.12H2906.25C2922.52 2953.12 2937.56 2944.69 2946.14 2930.91C2954.67 2917.08 2955.47 2899.83 2948.2 2885.3ZM1419.98 2658.14L1621.22 2859.38H1472.53L1111.27 2498.11C1092.94 2479.78 1063.31 2479.78 1044.98 2498.11L683.719 2859.38H535.031L970.641 2423.77C988.969 2405.44 988.969 2375.81 970.641 2357.48L603.891 1990.73L653.437 1891.59L857.438 2095.59C866.625 2104.78 878.625 2109.38 890.625 2109.38C902.625 2109.38 914.625 2104.78 923.766 2095.64L1158.14 1861.27C1166.95 1852.5 1171.88 1840.55 1171.88 1828.12V1546.88H1265.63V1902.47L998.109 2169.98C979.781 2188.31 979.781 2217.94 998.109 2236.27L1279.36 2517.52C1288.5 2526.66 1300.5 2531.25 1312.5 2531.25C1324.5 2531.25 1336.5 2526.66 1345.64 2517.52L1753.78 2109.38H2455.41L2502.28 2203.12H1828.13C1815.66 2203.12 1803.75 2208.05 1794.98 2216.86L1419.98 2591.86C1401.66 2610.19 1401.66 2639.81 1419.98 2658.14ZM1339.97 2859.38H816.281L1078.13 2597.53L1339.97 2859.38ZM1218.75 984.375C1218.75 777.609 1386.98 609.375 1593.75 609.375C1800.52 609.375 1968.75 777.609 1968.75 984.375C1968.75 1152.42 1855.45 1300.92 1693.27 1345.55C1676.67 1350.14 1663.92 1363.41 1660.03 1380.19L1593.75 1666.92L1527.47 1380.19C1523.58 1363.41 1510.83 1350.09 1494.23 1345.55C1332.05 1300.92 1218.75 1152.42 1218.75 984.375ZM1548.05 1885.55C1553.02 1906.83 1571.91 1921.88 1593.75 1921.88C1615.59 1921.88 1634.48 1906.83 1639.45 1885.55L1717.73 1546.88H2174.16L2408.53 2015.62H1734.38C1721.91 2015.62 1710 2020.55 1701.23 2029.36L1312.5 2418.09L1097.53 2203.12L1345.64 1955.02C1354.45 1946.25 1359.38 1934.3 1359.38 1921.88V1546.88H1469.77L1548.05 1885.55ZM825.844 1546.88H1078.13V1808.72L890.625 1996.22L697.641 1803.23L825.844 1546.88ZM559.734 2079.14L871.219 2390.62L402.469 2859.38H169.594L559.734 2079.14ZM1753.78 2859.38L1519.41 2625L1847.53 2296.88H2549.16L2736.66 2671.88H2509.45L2335.88 2411.48C2328.09 2399.77 2315.44 2392.22 2301.52 2390.86C2287.36 2389.41 2273.67 2394.47 2263.73 2404.36L2175 2493.05L2103.19 2367.33C2086.55 2338.12 2038.45 2338.12 2021.81 2367.33L1847.81 2671.88H1734.38V2765.62H2783.53L2830.41 2859.38H1753.78ZM2169.23 2671.88H1955.77L2062.5 2485.12L2169.23 2671.88ZM2277.19 2671.88L2223.23 2577.42L2289.61 2511.09L2396.81 2671.88H2277.19Z" fill="black"/>
<path d="M1781.25 984.375H1875C1875 829.266 1748.86 703.125 1593.75 703.125V796.875C1697.16 796.875 1781.25 880.969 1781.25 984.375Z" fill="black"/>
<path d="M1706.2 1134.38L1762.5 1209.38C1801.41 1180.13 1832.16 1141.27 1851.52 1096.88L1765.64 1059.38C1752.8 1088.95 1732.22 1114.88 1706.2 1134.38V1134.38Z" fill="black"/>
<path d="M187.5 703.125C171.844 703.125 157.219 710.953 148.5 723.984L54.75 864.609C44.25 880.359 44.25 900.844 54.75 916.594L148.5 1057.22C157.219 1070.3 171.844 1078.12 187.5 1078.12H421.875V1500C421.875 1525.87 442.828 1546.88 468.75 1546.88H656.25C682.172 1546.88 703.125 1525.87 703.125 1500V1078.12H1031.25C1048.55 1078.12 1064.44 1068.61 1072.59 1053.38C1080.75 1038.14 1079.81 1019.62 1070.25 1005.28L993.844 890.625L1070.25 776.016C1079.81 761.625 1080.75 743.156 1072.59 727.922C1064.44 712.688 1048.55 703.125 1031.25 703.125H703.125V609.375H937.5C953.156 609.375 967.781 601.547 976.5 588.516L1070.25 447.891C1080.75 432.141 1080.75 411.656 1070.25 395.906L976.5 255.281C967.781 242.203 953.156 234.375 937.5 234.375H703.125V93.75C703.125 67.875 682.172 46.875 656.25 46.875H468.75C442.828 46.875 421.875 67.875 421.875 93.75V234.375H93.75C76.4531 234.375 60.5625 243.891 52.4063 259.125C44.25 274.359 45.1875 292.875 54.75 307.219L131.156 421.875L54.75 536.484C45.1875 550.875 44.25 569.344 52.4063 584.578C60.5625 599.812 76.4531 609.375 93.75 609.375H421.875V703.125H187.5ZM609.375 1453.12H515.625V1078.12H609.375V1453.12ZM898.5 916.641L943.687 984.375H212.578L150.094 890.625L212.578 796.875H943.687L898.5 864.609C888 880.359 888 900.891 898.5 916.641ZM515.625 140.625H609.375V234.375H515.625V140.625ZM226.5 395.859L181.313 328.125H912.422L974.906 421.875L912.422 515.625H181.313L226.5 447.891C237 432.141 237 411.609 226.5 395.859V395.859ZM515.625 609.375H609.375V703.125H515.625V609.375Z" fill="black"/>
<path d="M234.375 843.75H328.125V937.5H234.375V843.75Z" fill="black"/>
<path d="M421.875 843.75H515.625V937.5H421.875V843.75Z" fill="black"/>
<path d="M796.875 375H890.625V468.75H796.875V375Z" fill="black"/>
<path d="M609.375 375H703.125V468.75H609.375V375Z" fill="black"/>
</svg>
